<svg width="116.171875" height="54.605469" viewBox="0 0 116.172 54.6055" fill="none" xmlns="http://www.w3.org/2000/svg" xmlns:xlink="http://www.w3.org/1999/xlink">
	<desc>
			Created with Pixso.
	</desc>
	<defs>
		<filter id="filter_119_187_dd" x="0.000000" y="0.000000" width="116.171875" height="54.605469" filterUnits="userSpaceOnUse" color-interpolation-filters="sRGB">
			<feFlood flood-opacity="0" result="BackgroundImageFix"/>
			<feColorMatrix in="SourceAlpha" type="matrix" values="0 0 0 0 0 0 0 0 0 0 0 0 0 0 0 0 0 0 127 0" result="hardAlpha"/>
			<feOffset dx="0" dy="4"/>
			<feGaussianBlur stdDeviation="1.33333"/>
			<feComposite in2="hardAlpha" operator="out" k2="-1" k3="1"/>
			<feColorMatrix type="matrix" values="0 0 0 0 0 0 0 0 0 0 0 0 0 0 0 0 0 0 0.25 0"/>
			<feBlend mode="normal" in2="BackgroundImageFix" result="effect_dropShadow_1"/>
			<feBlend mode="normal" in="SourceGraphic" in2="effect_dropShadow_1" result="shape"/>
		</filter>
	</defs>
	<g filter="url(#filter_119_187_dd)">
		<path id="logo" d="M9.875 10.7383L8.09375 9.66016C6.97656 8.98047 6.17969 8.3125 5.70312 7.65625C5.23438 6.99219 5 6.23047 5 5.37109C5 4.08203 5.44531 3.03516 6.33594 2.23047C7.23438 1.42578 8.39844 1.02344 9.82812 1.02344C11.1953 1.02344 12.4492 1.40625 13.5898 2.17188L13.5898 4.83203C12.4102 3.69922 11.1406 3.13281 9.78125 3.13281C9.01562 3.13281 8.38672 3.3125 7.89453 3.67188C7.40234 4.02344 7.15625 4.47656 7.15625 5.03125C7.15625 5.52344 7.33594 5.98438 7.69531 6.41406C8.05469 6.84375 8.63672 7.29297 9.44141 7.76172L11.2344 8.81641C13.2344 10.0039 14.2344 11.5195 14.2344 13.3633C14.2344 14.6758 13.793 15.7422 12.9102 16.5625C12.0352 17.3828 10.8945 17.793 9.48828 17.793C7.87109 17.793 6.39844 17.2969 5.07031 16.3047L5.07031 13.3281C6.33594 14.9297 7.80078 15.7305 9.46484 15.7305C10.1992 15.7305 10.8086 15.5273 11.293 15.1211C11.7852 14.707 12.0312 14.1914 12.0312 13.5742C12.0312 12.5742 11.3125 11.6289 9.875 10.7383ZM28.3555 1.23438L30.6992 1.23438L30.6992 17.6055L28.3555 17.6055L28.3555 10.4805L19.1562 10.4805L19.1562 17.6055L16.8125 17.6055L16.8125 1.23438L19.1562 1.23438L19.1562 8.3125L28.3555 8.3125L28.3555 1.23438ZM42.3594 1C44.8906 1 46.9961 1.80078 48.6758 3.40234C50.3633 5.00391 51.207 7.01172 51.207 9.42578C51.207 11.8398 50.3555 13.8398 48.6523 15.4258C46.957 17.0039 44.8164 17.793 42.2305 17.793C39.7617 17.793 37.7031 17.0039 36.0547 15.4258C34.4141 13.8398 33.5938 11.8555 33.5938 9.47266C33.5938 7.02734 34.4219 5.00391 36.0781 3.40234C37.7344 1.80078 39.8281 1 42.3594 1ZM42.4531 3.22656C40.5781 3.22656 39.0352 3.8125 37.8242 4.98438C36.6211 6.15625 36.0195 7.65234 36.0195 9.47266C36.0195 11.2383 36.625 12.707 37.8359 13.8789C39.0469 15.0508 40.5625 15.6367 42.3828 15.6367C44.2109 15.6367 45.7344 15.0391 46.9531 13.8438C48.1797 12.6484 48.793 11.1602 48.793 9.37891C48.793 7.64453 48.1797 6.1875 46.9531 5.00781C45.7344 3.82031 44.2344 3.22656 42.4531 3.22656ZM53.9492 17.6055L53.9492 1.21094L59.1406 1.21094C60.7031 1.21094 61.9492 1.63281 62.8789 2.47656C63.8086 3.32031 64.2734 4.45312 64.2734 5.875C64.2734 6.82812 64.0352 7.67188 63.5586 8.40625C63.082 9.14062 62.4297 9.67578 61.6016 10.0117C60.7734 10.3398 59.5859 10.5039 58.0391 10.5039L56.3047 10.5039L56.3047 17.6055L53.9492 17.6055ZM58.7305 3.29688L56.3047 3.29688L56.3047 8.41797L58.8711 8.41797C59.8242 8.41797 60.5586 8.19531 61.0742 7.75C61.5898 7.29688 61.8477 6.65234 61.8477 5.81641C61.8477 4.13672 60.8086 3.29688 58.7305 3.29688ZM20.8906 41C20.8906 42.3984 20.4102 43.5156 19.4492 44.3516C18.4961 45.1875 17.1602 45.6055 15.4414 45.6055L6.05469 45.6055L6.05469 29.3633L13.9062 29.3633C14.9219 29.3633 15.8047 29.4609 16.5547 29.6562C17.3125 29.8516 17.9219 30.1211 18.3828 30.4648C18.8438 30.8008 19.1875 31.1992 19.4141 31.6602C19.6406 32.1211 19.7539 32.625 19.7539 33.1719C19.7539 33.7656 19.6367 34.3164 19.4023 34.8242C19.168 35.3242 18.875 35.7383 18.5234 36.0664C18.1797 36.3867 17.832 36.6133 17.4805 36.7461C18.5898 37.1836 19.4336 37.7383 20.0117 38.4102C20.5977 39.0742 20.8906 39.9375 20.8906 41ZM15.1719 34.0391C15.1719 33.2578 14.9141 32.7383 14.3984 32.4805C13.8828 32.2227 13.0781 32.0938 11.9844 32.0938L10.9531 32.0938L10.9531 35.9844L12.0078 35.9844C13.125 35.9844 13.9297 35.8555 14.4219 35.5977C14.9219 35.3398 15.1719 34.8203 15.1719 34.0391ZM15.9688 40.8008C15.9688 39.4102 14.9609 38.7148 12.9453 38.7148L10.9531 38.7148L10.9531 42.875L12.9453 42.875C14.9609 42.875 15.9688 42.1836 15.9688 40.8008ZM41.1641 45.6055L36.1484 45.6055L34.8242 42.3125L27.7695 42.3125L26.4219 45.6055L21.4062 45.6055L28.5898 29.3633L34.0039 29.3633L41.1641 45.6055ZM33.6992 39.4883L31.3203 33.5586L28.918 39.4883L33.6992 39.4883ZM60.4062 45.6055L54.4297 45.6055L48.2188 38L48.2188 45.6055L43.3203 45.6055L43.3203 29.3633L48.2188 29.3633L48.2188 36.6289L54.1016 29.3633L59.4219 29.3633L53.375 36.9688L60.4062 45.6055ZM74.7852 45.6055L62.5391 45.6055L62.5391 29.3633L74.5859 29.3633L74.5859 32.6211L67.4375 32.6211L67.4375 35.5977L74.2578 35.5977L74.2578 38.8672L67.4375 38.8672L67.4375 42.3359L74.7852 42.3359L74.7852 45.6055ZM93.8047 45.6055L88.543 45.6055L87.2656 42.7227C86.7969 41.668 86.375 40.8984 86 40.4141C85.625 39.9219 85.2578 39.6094 84.8984 39.4766C84.5469 39.3359 84.0898 39.2656 83.5273 39.2656L82.9766 39.2656L82.9766 45.6055L78.0781 45.6055L78.0781 29.3633L86.4102 29.3633C87.7539 29.3633 88.8555 29.6367 89.7148 30.1836C90.5742 30.7305 91.1914 31.3945 91.5664 32.1758C91.9492 32.957 92.1406 33.6992 92.1406 34.4023C92.1406 35.2227 91.9805 35.918 91.6602 36.4883C91.3477 37.0508 91.0156 37.4609 90.6641 37.7188C90.3125 37.9766 89.918 38.2227 89.4805 38.457C90.0039 38.7617 90.4336 39.125 90.7695 39.5469C91.1133 39.9609 91.5781 40.8047 92.1641 42.0781L93.8047 45.6055ZM87.1484 34.4961C87.1484 33.7461 86.9023 33.2227 86.4102 32.9258C85.918 32.6289 85.1172 32.4805 84.0078 32.4805L82.9766 32.4805L82.9766 36.3945L84.0312 36.3945C85.2266 36.3945 86.043 36.2656 86.4805 36.0078C86.9258 35.7422 87.1484 35.2383 87.1484 34.4961ZM111.172 29.3633L104.809 38.1641L104.809 45.6055L99.9102 45.6055L99.9102 38.2578L93.4297 29.3633L98.5156 29.3633L102.242 34.4727L105.98 29.3633L111.172 29.3633Z" fill="#000000" fill-opacity="1.000000" fill-rule="evenodd"/>
	</g>
	<path id="logo" d="M9.875 10.7383L8.09375 9.66016C6.97656 8.98047 6.17969 8.3125 5.70312 7.65625C5.23438 6.99219 5 6.23047 5 5.37109C5 4.08203 5.44531 3.03516 6.33594 2.23047C7.23438 1.42578 8.39844 1.02344 9.82812 1.02344C11.1953 1.02344 12.4492 1.40625 13.5898 2.17188L13.5898 4.83203C12.4102 3.69922 11.1406 3.13281 9.78125 3.13281C9.01562 3.13281 8.38672 3.3125 7.89453 3.67188C7.40234 4.02344 7.15625 4.47656 7.15625 5.03125C7.15625 5.52344 7.33594 5.98438 7.69531 6.41406C8.05469 6.84375 8.63672 7.29297 9.44141 7.76172L11.2344 8.81641C13.2344 10.0039 14.2344 11.5195 14.2344 13.3633C14.2344 14.6758 13.793 15.7422 12.9102 16.5625C12.0352 17.3828 10.8945 17.793 9.48828 17.793C7.87109 17.793 6.39844 17.2969 5.07031 16.3047L5.07031 13.3281C6.33594 14.9297 7.80078 15.7305 9.46484 15.7305C10.1992 15.7305 10.8086 15.5273 11.293 15.1211C11.7852 14.707 12.0312 14.1914 12.0312 13.5742C12.0312 12.5742 11.3125 11.6289 9.875 10.7383ZM28.3555 1.23438L30.6992 1.23438L30.6992 17.6055L28.3555 17.6055L28.3555 10.4805L19.1562 10.4805L19.1562 17.6055L16.8125 17.6055L16.8125 1.23438L19.1562 1.23438L19.1562 8.3125L28.3555 8.3125L28.3555 1.23438ZM42.3594 1C44.8906 1 46.9961 1.80078 48.6758 3.40234C50.3633 5.00391 51.207 7.01172 51.207 9.42578C51.207 11.8398 50.3555 13.8398 48.6523 15.4258C46.957 17.0039 44.8164 17.793 42.2305 17.793C39.7617 17.793 37.7031 17.0039 36.0547 15.4258C34.4141 13.8398 33.5938 11.8555 33.5938 9.47266C33.5938 7.02734 34.4219 5.00391 36.0781 3.40234C37.7344 1.80078 39.8281 1 42.3594 1ZM42.4531 3.22656C40.5781 3.22656 39.0352 3.8125 37.8242 4.98438C36.6211 6.15625 36.0195 7.65234 36.0195 9.47266C36.0195 11.2383 36.625 12.707 37.8359 13.8789C39.0469 15.0508 40.5625 15.6367 42.3828 15.6367C44.2109 15.6367 45.7344 15.0391 46.9531 13.8438C48.1797 12.6484 48.793 11.1602 48.793 9.37891C48.793 7.64453 48.1797 6.1875 46.9531 5.00781C45.7344 3.82031 44.2344 3.22656 42.4531 3.22656ZM53.9492 17.6055L53.9492 1.21094L59.1406 1.21094C60.7031 1.21094 61.9492 1.63281 62.8789 2.47656C63.8086 3.32031 64.2734 4.45312 64.2734 5.875C64.2734 6.82812 64.0352 7.67188 63.5586 8.40625C63.082 9.14062 62.4297 9.67578 61.6016 10.0117C60.7734 10.3398 59.5859 10.5039 58.0391 10.5039L56.3047 10.5039L56.3047 17.6055L53.9492 17.6055ZM58.7305 3.29688L56.3047 3.29688L56.3047 8.41797L58.8711 8.41797C59.8242 8.41797 60.5586 8.19531 61.0742 7.75C61.5898 7.29688 61.8477 6.65234 61.8477 5.81641C61.8477 4.13672 60.8086 3.29688 58.7305 3.29688ZM20.8906 41C20.8906 42.3984 20.4102 43.5156 19.4492 44.3516C18.4961 45.1875 17.1602 45.6055 15.4414 45.6055L6.05469 45.6055L6.05469 29.3633L13.9062 29.3633C14.9219 29.3633 15.8047 29.4609 16.5547 29.6562C17.3125 29.8516 17.9219 30.1211 18.3828 30.4648C18.8438 30.8008 19.1875 31.1992 19.4141 31.6602C19.6406 32.1211 19.7539 32.625 19.7539 33.1719C19.7539 33.7656 19.6367 34.3164 19.4023 34.8242C19.168 35.3242 18.875 35.7383 18.5234 36.0664C18.1797 36.3867 17.832 36.6133 17.4805 36.7461C18.5898 37.1836 19.4336 37.7383 20.0117 38.4102C20.5977 39.0742 20.8906 39.9375 20.8906 41ZM15.1719 34.0391C15.1719 33.2578 14.9141 32.7383 14.3984 32.4805C13.8828 32.2227 13.0781 32.0938 11.9844 32.0938L10.9531 32.0938L10.9531 35.9844L12.0078 35.9844C13.125 35.9844 13.9297 35.8555 14.4219 35.5977C14.9219 35.3398 15.1719 34.8203 15.1719 34.0391ZM15.9688 40.8008C15.9688 39.4102 14.9609 38.7148 12.9453 38.7148L10.9531 38.7148L10.9531 42.875L12.9453 42.875C14.9609 42.875 15.9688 42.1836 15.9688 40.8008ZM41.1641 45.6055L36.1484 45.6055L34.8242 42.3125L27.7695 42.3125L26.4219 45.6055L21.4062 45.6055L28.5898 29.3633L34.0039 29.3633L41.1641 45.6055ZM33.6992 39.4883L31.3203 33.5586L28.918 39.4883L33.6992 39.4883ZM60.4062 45.6055L54.4297 45.6055L48.2188 38L48.2188 45.6055L43.3203 45.6055L43.3203 29.3633L48.2188 29.3633L48.2188 36.6289L54.1016 29.3633L59.4219 29.3633L53.375 36.9688L60.4062 45.6055ZM74.7852 45.6055L62.5391 45.6055L62.5391 29.3633L74.5859 29.3633L74.5859 32.6211L67.4375 32.6211L67.4375 35.5977L74.2578 35.5977L74.2578 38.8672L67.4375 38.8672L67.4375 42.3359L74.7852 42.3359L74.7852 45.6055ZM93.8047 45.6055L88.543 45.6055L87.2656 42.7227C86.7969 41.668 86.375 40.8984 86 40.4141C85.625 39.9219 85.2578 39.6094 84.8984 39.4766C84.5469 39.3359 84.0898 39.2656 83.5273 39.2656L82.9766 39.2656L82.9766 45.6055L78.0781 45.6055L78.0781 29.3633L86.4102 29.3633C87.7539 29.3633 88.8555 29.6367 89.7148 30.1836C90.5742 30.7305 91.1914 31.3945 91.5664 32.1758C91.9492 32.957 92.1406 33.6992 92.1406 34.4023C92.1406 35.2227 91.9805 35.918 91.6602 36.4883C91.3477 37.0508 91.0156 37.4609 90.6641 37.7188C90.3125 37.9766 89.918 38.2227 89.4805 38.457C90.0039 38.7617 90.4336 39.125 90.7695 39.5469C91.1133 39.9609 91.5781 40.8047 92.1641 42.0781L93.8047 45.6055ZM87.1484 34.4961C87.1484 33.7461 86.9023 33.2227 86.4102 32.9258C85.918 32.6289 85.1172 32.4805 84.0078 32.4805L82.9766 32.4805L82.9766 36.3945L84.0312 36.3945C85.2266 36.3945 86.043 36.2656 86.4805 36.0078C86.9258 35.7422 87.1484 35.2383 87.1484 34.4961ZM111.172 29.3633L104.809 38.1641L104.809 45.6055L99.9102 45.6055L99.9102 38.2578L93.4297 29.3633L98.5156 29.3633L102.242 34.4727L105.98 29.3633L111.172 29.3633Z" stroke="#000000" stroke-opacity="1.000000" stroke-width="1.000000"/>
</svg>
